<mxfile host="app.diagrams.net" agent="Mozilla/5.0 (Windows NT 10.0; Win64; x64) AppleWebKit/537.36 (KHTML, like Gecko) Chrome/130.0.0.0 Safari/537.36" version="24.8.6">
  <diagram name="Page-1" id="1Y3UkBD_-wGJTAGrDvLy">
    <mxGraphModel dx="1434" dy="1786" grid="1" gridSize="10" guides="1" tooltips="1" connect="1" arrows="1" fold="1" page="1" pageScale="1" pageWidth="850" pageHeight="1100" math="0" shadow="0">
      <root>
        <mxCell id="0" />
        <mxCell id="1" parent="0" />
        <mxCell id="FxieRYXLxM4uYghHdNRu-4" value="" style="edgeStyle=orthogonalEdgeStyle;rounded=0;orthogonalLoop=1;jettySize=auto;html=1;" edge="1" parent="1" source="3jjEenvmpNi-Ulg0jTfC-2" target="FxieRYXLxM4uYghHdNRu-3">
          <mxGeometry relative="1" as="geometry" />
        </mxCell>
        <mxCell id="3jjEenvmpNi-Ulg0jTfC-2" value="Start game" style="rounded=1;whiteSpace=wrap;html=1;" parent="1" vertex="1">
          <mxGeometry x="80" y="80" width="120" height="80" as="geometry" />
        </mxCell>
        <mxCell id="FxieRYXLxM4uYghHdNRu-6" value="" style="edgeStyle=orthogonalEdgeStyle;rounded=0;orthogonalLoop=1;jettySize=auto;html=1;" edge="1" parent="1" source="FxieRYXLxM4uYghHdNRu-3" target="FxieRYXLxM4uYghHdNRu-5">
          <mxGeometry relative="1" as="geometry" />
        </mxCell>
        <mxCell id="FxieRYXLxM4uYghHdNRu-3" value="start game" style="whiteSpace=wrap;html=1;rounded=1;" vertex="1" parent="1">
          <mxGeometry x="280" y="80" width="120" height="80" as="geometry" />
        </mxCell>
        <mxCell id="FxieRYXLxM4uYghHdNRu-20" value="" style="edgeStyle=orthogonalEdgeStyle;rounded=0;orthogonalLoop=1;jettySize=auto;html=1;" edge="1" parent="1" source="FxieRYXLxM4uYghHdNRu-5" target="FxieRYXLxM4uYghHdNRu-19">
          <mxGeometry relative="1" as="geometry" />
        </mxCell>
        <mxCell id="FxieRYXLxM4uYghHdNRu-5" value="create brick layer" style="whiteSpace=wrap;html=1;rounded=1;" vertex="1" parent="1">
          <mxGeometry x="480" y="80" width="120" height="80" as="geometry" />
        </mxCell>
        <mxCell id="FxieRYXLxM4uYghHdNRu-23" style="edgeStyle=orthogonalEdgeStyle;rounded=0;orthogonalLoop=1;jettySize=auto;html=1;exitX=1;exitY=0.5;exitDx=0;exitDy=0;" edge="1" parent="1" source="FxieRYXLxM4uYghHdNRu-13" target="FxieRYXLxM4uYghHdNRu-16">
          <mxGeometry relative="1" as="geometry" />
        </mxCell>
        <mxCell id="FxieRYXLxM4uYghHdNRu-41" value="no" style="edgeLabel;html=1;align=center;verticalAlign=middle;resizable=0;points=[];" vertex="1" connectable="0" parent="FxieRYXLxM4uYghHdNRu-23">
          <mxGeometry x="0.15" relative="1" as="geometry">
            <mxPoint x="-6" as="offset" />
          </mxGeometry>
        </mxCell>
        <mxCell id="FxieRYXLxM4uYghHdNRu-26" value="yes" style="edgeStyle=orthogonalEdgeStyle;rounded=0;orthogonalLoop=1;jettySize=auto;html=1;" edge="1" parent="1" source="FxieRYXLxM4uYghHdNRu-13" target="FxieRYXLxM4uYghHdNRu-25">
          <mxGeometry relative="1" as="geometry" />
        </mxCell>
        <mxCell id="FxieRYXLxM4uYghHdNRu-13" value="ball fall off below" style="whiteSpace=wrap;html=1;rounded=1;" vertex="1" parent="1">
          <mxGeometry x="840" y="80" width="120" height="80" as="geometry" />
        </mxCell>
        <mxCell id="FxieRYXLxM4uYghHdNRu-30" value="" style="edgeStyle=orthogonalEdgeStyle;rounded=0;orthogonalLoop=1;jettySize=auto;html=1;" edge="1" parent="1" source="FxieRYXLxM4uYghHdNRu-16" target="FxieRYXLxM4uYghHdNRu-29">
          <mxGeometry relative="1" as="geometry" />
        </mxCell>
        <mxCell id="FxieRYXLxM4uYghHdNRu-36" value="" style="edgeStyle=orthogonalEdgeStyle;rounded=0;orthogonalLoop=1;jettySize=auto;html=1;" edge="1" parent="1" source="FxieRYXLxM4uYghHdNRu-16" target="FxieRYXLxM4uYghHdNRu-35">
          <mxGeometry relative="1" as="geometry" />
        </mxCell>
        <mxCell id="FxieRYXLxM4uYghHdNRu-16" value="ball deflects off baddle&amp;nbsp;" style="whiteSpace=wrap;html=1;rounded=1;" vertex="1" parent="1">
          <mxGeometry x="1040" y="80" width="120" height="80" as="geometry" />
        </mxCell>
        <mxCell id="FxieRYXLxM4uYghHdNRu-22" style="edgeStyle=orthogonalEdgeStyle;rounded=0;orthogonalLoop=1;jettySize=auto;html=1;entryX=0;entryY=0.5;entryDx=0;entryDy=0;" edge="1" parent="1" source="FxieRYXLxM4uYghHdNRu-19" target="FxieRYXLxM4uYghHdNRu-13">
          <mxGeometry relative="1" as="geometry" />
        </mxCell>
        <mxCell id="FxieRYXLxM4uYghHdNRu-19" value="spawn ball falling" style="whiteSpace=wrap;html=1;rounded=1;" vertex="1" parent="1">
          <mxGeometry x="680" y="80" width="120" height="80" as="geometry" />
        </mxCell>
        <mxCell id="FxieRYXLxM4uYghHdNRu-50" value="" style="edgeStyle=orthogonalEdgeStyle;rounded=0;orthogonalLoop=1;jettySize=auto;html=1;" edge="1" parent="1" source="FxieRYXLxM4uYghHdNRu-25" target="FxieRYXLxM4uYghHdNRu-49">
          <mxGeometry relative="1" as="geometry" />
        </mxCell>
        <mxCell id="FxieRYXLxM4uYghHdNRu-25" value="take away one life" style="whiteSpace=wrap;html=1;rounded=1;" vertex="1" parent="1">
          <mxGeometry x="840" y="320" width="120" height="80" as="geometry" />
        </mxCell>
        <mxCell id="FxieRYXLxM4uYghHdNRu-32" value="" style="edgeStyle=orthogonalEdgeStyle;rounded=0;orthogonalLoop=1;jettySize=auto;html=1;" edge="1" parent="1" source="FxieRYXLxM4uYghHdNRu-29">
          <mxGeometry relative="1" as="geometry">
            <mxPoint x="1300" as="targetPoint" />
          </mxGeometry>
        </mxCell>
        <mxCell id="FxieRYXLxM4uYghHdNRu-44" value="no" style="edgeLabel;html=1;align=center;verticalAlign=middle;resizable=0;points=[];" vertex="1" connectable="0" parent="FxieRYXLxM4uYghHdNRu-32">
          <mxGeometry x="-0.0311" relative="1" as="geometry">
            <mxPoint as="offset" />
          </mxGeometry>
        </mxCell>
        <mxCell id="FxieRYXLxM4uYghHdNRu-46" value="" style="edgeStyle=orthogonalEdgeStyle;rounded=0;orthogonalLoop=1;jettySize=auto;html=1;" edge="1" parent="1" source="FxieRYXLxM4uYghHdNRu-29" target="FxieRYXLxM4uYghHdNRu-45">
          <mxGeometry relative="1" as="geometry" />
        </mxCell>
        <mxCell id="FxieRYXLxM4uYghHdNRu-47" value="yes" style="edgeLabel;html=1;align=center;verticalAlign=middle;resizable=0;points=[];" vertex="1" connectable="0" parent="FxieRYXLxM4uYghHdNRu-46">
          <mxGeometry x="-0.175" relative="1" as="geometry">
            <mxPoint x="23" as="offset" />
          </mxGeometry>
        </mxCell>
        <mxCell id="FxieRYXLxM4uYghHdNRu-29" value="ball hit last brick" style="whiteSpace=wrap;html=1;rounded=1;" vertex="1" parent="1">
          <mxGeometry x="1240" y="80" width="120" height="80" as="geometry" />
        </mxCell>
        <mxCell id="FxieRYXLxM4uYghHdNRu-39" style="edgeStyle=orthogonalEdgeStyle;rounded=0;orthogonalLoop=1;jettySize=auto;html=1;exitX=1;exitY=0.5;exitDx=0;exitDy=0;entryX=0.5;entryY=1;entryDx=0;entryDy=0;" edge="1" parent="1" source="FxieRYXLxM4uYghHdNRu-34" target="FxieRYXLxM4uYghHdNRu-35">
          <mxGeometry relative="1" as="geometry">
            <Array as="points">
              <mxPoint x="1640" y="-40" />
              <mxPoint x="1640" y="360" />
              <mxPoint x="1100" y="360" />
            </Array>
          </mxGeometry>
        </mxCell>
        <mxCell id="FxieRYXLxM4uYghHdNRu-42" style="edgeStyle=orthogonalEdgeStyle;rounded=0;orthogonalLoop=1;jettySize=auto;html=1;exitX=0;exitY=0.5;exitDx=0;exitDy=0;entryX=0.5;entryY=0;entryDx=0;entryDy=0;" edge="1" parent="1" source="FxieRYXLxM4uYghHdNRu-34" target="FxieRYXLxM4uYghHdNRu-13">
          <mxGeometry relative="1" as="geometry" />
        </mxCell>
        <mxCell id="FxieRYXLxM4uYghHdNRu-34" value="add score, ball bounce off brick" style="rounded=1;whiteSpace=wrap;html=1;" vertex="1" parent="1">
          <mxGeometry x="1240" y="-80" width="120" height="80" as="geometry" />
        </mxCell>
        <mxCell id="FxieRYXLxM4uYghHdNRu-37" style="edgeStyle=orthogonalEdgeStyle;rounded=0;orthogonalLoop=1;jettySize=auto;html=1;entryX=0.5;entryY=1;entryDx=0;entryDy=0;" edge="1" parent="1" source="FxieRYXLxM4uYghHdNRu-35" target="FxieRYXLxM4uYghHdNRu-29">
          <mxGeometry relative="1" as="geometry" />
        </mxCell>
        <mxCell id="FxieRYXLxM4uYghHdNRu-38" value="yes" style="edgeLabel;html=1;align=center;verticalAlign=middle;resizable=0;points=[];" vertex="1" connectable="0" parent="FxieRYXLxM4uYghHdNRu-37">
          <mxGeometry x="-0.4154" y="-1" relative="1" as="geometry">
            <mxPoint x="64" y="-1" as="offset" />
          </mxGeometry>
        </mxCell>
        <mxCell id="FxieRYXLxM4uYghHdNRu-43" style="edgeStyle=orthogonalEdgeStyle;rounded=0;orthogonalLoop=1;jettySize=auto;html=1;exitX=0;exitY=0.5;exitDx=0;exitDy=0;entryX=1;entryY=1;entryDx=0;entryDy=0;" edge="1" parent="1" source="FxieRYXLxM4uYghHdNRu-35" target="FxieRYXLxM4uYghHdNRu-13">
          <mxGeometry relative="1" as="geometry" />
        </mxCell>
        <mxCell id="FxieRYXLxM4uYghHdNRu-35" value="ball bounce off wall" style="whiteSpace=wrap;html=1;rounded=1;" vertex="1" parent="1">
          <mxGeometry x="1040" y="250" width="120" height="60" as="geometry" />
        </mxCell>
        <mxCell id="FxieRYXLxM4uYghHdNRu-48" style="edgeStyle=orthogonalEdgeStyle;rounded=0;orthogonalLoop=1;jettySize=auto;html=1;exitX=0.5;exitY=0;exitDx=0;exitDy=0;entryX=0.5;entryY=0;entryDx=0;entryDy=0;" edge="1" parent="1" source="FxieRYXLxM4uYghHdNRu-45" target="FxieRYXLxM4uYghHdNRu-5">
          <mxGeometry relative="1" as="geometry">
            <Array as="points">
              <mxPoint x="1510" y="80" />
              <mxPoint x="1510" y="-120" />
              <mxPoint x="540" y="-120" />
            </Array>
          </mxGeometry>
        </mxCell>
        <mxCell id="FxieRYXLxM4uYghHdNRu-57" value="" style="edgeStyle=orthogonalEdgeStyle;rounded=0;orthogonalLoop=1;jettySize=auto;html=1;" edge="1" parent="1" source="FxieRYXLxM4uYghHdNRu-45" target="FxieRYXLxM4uYghHdNRu-56">
          <mxGeometry relative="1" as="geometry" />
        </mxCell>
        <mxCell id="FxieRYXLxM4uYghHdNRu-58" value="no" style="edgeLabel;html=1;align=center;verticalAlign=middle;resizable=0;points=[];" vertex="1" connectable="0" parent="FxieRYXLxM4uYghHdNRu-57">
          <mxGeometry x="-0.05" y="1" relative="1" as="geometry">
            <mxPoint as="offset" />
          </mxGeometry>
        </mxCell>
        <mxCell id="FxieRYXLxM4uYghHdNRu-45" value="if endless" style="whiteSpace=wrap;html=1;rounded=1;" vertex="1" parent="1">
          <mxGeometry x="1440" y="80" width="120" height="80" as="geometry" />
        </mxCell>
        <mxCell id="FxieRYXLxM4uYghHdNRu-52" value="" style="edgeStyle=orthogonalEdgeStyle;rounded=0;orthogonalLoop=1;jettySize=auto;html=1;" edge="1" parent="1" source="FxieRYXLxM4uYghHdNRu-49" target="FxieRYXLxM4uYghHdNRu-51">
          <mxGeometry relative="1" as="geometry" />
        </mxCell>
        <mxCell id="FxieRYXLxM4uYghHdNRu-55" value="yes" style="edgeLabel;html=1;align=center;verticalAlign=middle;resizable=0;points=[];" vertex="1" connectable="0" parent="FxieRYXLxM4uYghHdNRu-52">
          <mxGeometry x="-0.025" y="2" relative="1" as="geometry">
            <mxPoint as="offset" />
          </mxGeometry>
        </mxCell>
        <mxCell id="FxieRYXLxM4uYghHdNRu-53" style="edgeStyle=orthogonalEdgeStyle;rounded=0;orthogonalLoop=1;jettySize=auto;html=1;entryX=0.5;entryY=1;entryDx=0;entryDy=0;" edge="1" parent="1" source="FxieRYXLxM4uYghHdNRu-49" target="FxieRYXLxM4uYghHdNRu-19">
          <mxGeometry relative="1" as="geometry" />
        </mxCell>
        <mxCell id="FxieRYXLxM4uYghHdNRu-54" value="no" style="edgeLabel;html=1;align=center;verticalAlign=middle;resizable=0;points=[];" vertex="1" connectable="0" parent="FxieRYXLxM4uYghHdNRu-53">
          <mxGeometry x="0.0375" y="-2" relative="1" as="geometry">
            <mxPoint as="offset" />
          </mxGeometry>
        </mxCell>
        <mxCell id="FxieRYXLxM4uYghHdNRu-49" value="if lives equal 0" style="whiteSpace=wrap;html=1;rounded=1;" vertex="1" parent="1">
          <mxGeometry x="680" y="320" width="120" height="80" as="geometry" />
        </mxCell>
        <mxCell id="FxieRYXLxM4uYghHdNRu-51" value="show &quot;you lose&quot;" style="whiteSpace=wrap;html=1;rounded=1;" vertex="1" parent="1">
          <mxGeometry x="680" y="480" width="120" height="60" as="geometry" />
        </mxCell>
        <mxCell id="FxieRYXLxM4uYghHdNRu-56" value="show &quot;you win&quot;" style="whiteSpace=wrap;html=1;rounded=1;" vertex="1" parent="1">
          <mxGeometry x="1440" y="200" width="120" height="80" as="geometry" />
        </mxCell>
      </root>
    </mxGraphModel>
  </diagram>
</mxfile>
